<?xml version="1.0" encoding="utf-8"?>
<!-- Generator: Adobe Illustrator 22.0.0, SVG Export Plug-In . SVG Version: 6.00 Build 0)  -->
<svg version="1.1" id="Layer_1" xmlns="http://www.w3.org/2000/svg" xmlns:xlink="http://www.w3.org/1999/xlink" x="0px" y="0px"
	 viewBox="0 0 715.7 224.6" style="enable-background:new 0 0 715.7 224.6;" xml:space="preserve">
<style type="text/css">
	.st0{opacity:0.6;fill:#DE4C36;}
	.st1{fill:#FFFFFF;}
	.st2{font-family:'BellMT';}
	.st3{font-size:179.6003px;}
	.st4{font-family:'HarlowSolid';}
	.st5{font-size:169.6225px;}
</style>
<path class="st0" d="M204,103l-90.8-90.8C108,7,99.5,7,94.3,12.2L75.4,31.1L99.3,55c5.6-1.9,11.9-0.6,16.4,3.8
	c4.4,4.5,5.7,10.9,3.8,16.5l23,23c5.6-1.9,12-0.7,16.5,3.8c6.2,6.2,6.2,16.3,0,22.5c-6.2,6.2-16.3,6.2-22.5,0
	c-4.7-4.7-5.8-11.6-3.5-17.3l-21.5-21.5l0,56.5c1.6,0.8,3,1.8,4.2,3c6.2,6.2,6.2,16.3,0,22.5c-6.2,6.2-16.3,6.2-22.5,0
	c-6.2-6.2-6.2-16.3,0-22.5c1.5-1.5,3.3-2.7,5.2-3.5V84.8c-2-0.8-3.7-2-5.2-3.5c-4.7-4.7-5.8-11.6-3.4-17.4L66.2,40.3L3.9,102.5
	c-5.2,5.2-5.2,13.7,0,18.9l90.8,90.8c5.2,5.2,13.7,5.2,18.9,0l90.3-90.3C209.2,116.7,209.2,108.2,204,103"/>
<text transform="matrix(1 0 0 1 17.052 146.3895)" class="st1 st2 st3">git</text>
<text transform="matrix(1 0 0 1 227.8904 146.3885)" class="st1 st4 st5">Visual</text>
</svg>
